<?xml version="1.0" encoding="UTF-8" standalone="no"?>
<!-- Created with Inkscape (http://www.inkscape.org/) -->

<svg
   xmlns:dc="http://purl.org/dc/elements/1.1/"
   xmlns:cc="http://creativecommons.org/ns#"
   xmlns:rdf="http://www.w3.org/1999/02/22-rdf-syntax-ns#"
   xmlns:svg="http://www.w3.org/2000/svg"
   xmlns="http://www.w3.org/2000/svg"
   version="1.1"
   width="16"
   height="16"
   id="svg7384">
  <title
     id="title9167">Gnome Symbolic Icon Theme</title>
  <metadata
     id="metadata90">
    <rdf:RDF>
      <cc:Work
         rdf:about="">
        <dc:format>image/svg+xml</dc:format>
        <dc:type
           rdf:resource="http://purl.org/dc/dcmitype/StillImage" />
        <dc:title>Gnome Symbolic Icon Theme</dc:title>
      </cc:Work>
    </rdf:RDF>
  </metadata>
  <defs
     id="defs7386" />
  <g
     transform="translate(-283.02908,-629.02581)"
     id="layer9"
     style="display:inline" />
  <g
     transform="translate(-283.02908,-629.02581)"
     id="layer10" />
  <g
     transform="translate(-283.02908,-629.02581)"
     id="layer11">
    <path
       d="m 288.40566,638.77581 6.12342,-6.125 c 0.875,0 1.75,0.875 1.75,1.75 l -6.125,6.125 -1.75,0 z"
       id="path2273-6-2"
       style="fill:#2a2a2a;fill-opacity:1;fill-rule:evenodd;stroke:none" />
    <path
       d="m 295.40408,631.77581 c 0.875,0 1.75,0.875 1.75,1.75 l 0.875,-0.875 c 0,-0.875 -0.65787,-1.75 -1.75,-1.75 z"
       id="path4113-1-6-3"
       style="fill:#2a2a2a;fill-opacity:1;fill-rule:nonzero;stroke:none;stroke-width:1;marker:none;visibility:visible;display:inline;overflow:visible;enable-background:new" />
    <path
       d="m 284.98611,630.02581 c -0.4976,4e-5 -0.95699,0.43999 -0.95703,0.92969 l 0,11.23828 0,0.21875 0,0.68359 c 4e-5,0.4897 0.45943,0.92965 0.95703,0.92969 l 3.80078,0 0.98438,0 4.67578,0 c 0.48785,-4e-5 0.93973,-0.42409 0.95703,-0.90234 3.4e-4,-0.01 0,-0.0178 0,-0.0273 l 0,-6.07036 -1.75,1.75 0,3.5 -7.875,0 0,-10.5 4.375,0 1.75,1.75 1.33984,-1.33984 -1.91406,-1.85938 c -0.1754,-0.18232 -0.42848,-0.2989 -0.68359,-0.30078 z"
       id="path6682-6"
       style="font-size:medium;font-style:normal;font-variant:normal;font-weight:normal;font-stretch:normal;text-indent:0;text-align:start;text-decoration:none;line-height:normal;letter-spacing:normal;word-spacing:normal;text-transform:none;direction:ltr;block-progression:tb;writing-mode:lr-tb;text-anchor:start;baseline-shift:baseline;color:#000000;fill:#2a2a2a;fill-opacity:1;stroke:none;stroke-width:2;marker:none;visibility:visible;display:inline;overflow:visible;enable-background:accumulate;font-family:Sans;-inkscape-font-specification:Sans" />
  </g>
  <g
     transform="translate(-283.02908,-629.02581)"
     id="layer13" />
  <g
     transform="translate(-283.02908,-629.02581)"
     id="layer14" />
  <g
     transform="translate(-283.02908,-629.02581)"
     id="layer15"
     style="display:inline" />
  <g
     transform="translate(-283.02908,-629.02581)"
     id="g71291"
     style="display:inline" />
  <g
     transform="translate(-283.02908,-629.02581)"
     id="g4953"
     style="display:inline" />
  <g
     transform="translate(-283.02908,-629.02581)"
     id="layer12"
     style="display:inline" />
</svg>
