<?xml version="1.0" encoding="UTF-8" standalone="no"?>
<!-- Created with Inkscape (http://www.inkscape.org/) -->

<svg
   xmlns:dc="http://purl.org/dc/elements/1.1/"
   xmlns:cc="http://creativecommons.org/ns#"
   xmlns:rdf="http://www.w3.org/1999/02/22-rdf-syntax-ns#"
   xmlns:svg="http://www.w3.org/2000/svg"
   xmlns="http://www.w3.org/2000/svg"
   version="1.1"
   width="16"
   height="16"
   id="svg7384">
  <title
     id="title9167">Gnome Symbolic Icon Theme</title>
  <metadata
     id="metadata90">
    <rdf:RDF>
      <cc:Work
         rdf:about="">
        <dc:format>image/svg+xml</dc:format>
        <dc:type
           rdf:resource="http://purl.org/dc/dcmitype/StillImage" />
        <dc:title>Gnome Symbolic Icon Theme</dc:title>
      </cc:Work>
    </rdf:RDF>
  </metadata>
  <defs
     id="defs7386" />
  <g
     transform="translate(-181,-867.00012)"
     id="layer9"
     style="display:inline" />
  <g
     transform="translate(-181,-867.00012)"
     id="layer10" />
  <g
     transform="translate(-181,-867.00012)"
     id="layer11" />
  <g
     transform="translate(-181,-867.00012)"
     id="layer13" />
  <g
     transform="translate(-181,-867.00012)"
     id="layer14" />
  <g
     transform="translate(-181,-867.00012)"
     id="layer15"
     style="display:inline" />
  <g
     transform="translate(-181,-867.00012)"
     id="g71291"
     style="display:inline" />
  <g
     transform="translate(-181,-867.00012)"
     id="g4953"
     style="display:inline" />
  <g
     transform="translate(-181,-867.00012)"
     id="layer12"
     style="display:inline">
    <path
       d="m 182,868.90234 0,0.875 0,9.625 0,0.875 0.875,0 4.375,0 c 0.15347,0 0.45971,0.13271 0.71094,0.30078 0.25123,0.16808 0.41015,0.32813 0.41015,0.32813 l 0.62891,0.62891 0.62891,-0.65625 c 0,0 0.78426,-0.60157 1.12109,-0.60157 l 4.375,0 0.875,0 0,-0.875 0,-9.625 0,-0.875 -0.875,0 -4.375,0 c -0.76696,0 -1.36515,0.30412 -1.77734,0.60157 -0.0263,-0.0181 -0.0271,-0.009 -0.0547,-0.0273 -0.4031,-0.26579 -0.94337,-0.57427 -1.66797,-0.57427 l -4.375,0 -0.875,0 z m 1.75,1.75 3.5,0 c 0.12093,0 0.45041,0.12903 0.71094,0.30078 0.26052,0.17176 0.4375,0.32813 0.4375,0.32813 l 0.6289,0.60156 0.60157,-0.6289 c 0,0 0.78728,-0.60157 1.12109,-0.60157 l 3.5,0 0,7.875 -3.5,0 c -0.76731,0 -1.36507,0.30393 -1.77734,0.60157 -0.0171,-0.0118 -0.01,-0.0155 -0.0273,-0.0273 -0.40277,-0.26947 -0.96463,-0.57427 -1.69536,-0.57427 l -3.5,0 0,-7.875 z"
       id="rect7352-28-4-8"
       style="font-size:medium;font-style:normal;font-variant:normal;font-weight:normal;font-stretch:normal;text-indent:0;text-align:start;text-decoration:none;line-height:normal;letter-spacing:normal;word-spacing:normal;text-transform:none;direction:ltr;block-progression:tb;writing-mode:lr-tb;text-anchor:start;baseline-shift:baseline;color:#bebebe;fill:#2a2a2a;fill-opacity:1;stroke:none;stroke-width:2;marker:none;visibility:visible;display:inline;overflow:visible;enable-background:accumulate;font-family:Sans;-inkscape-font-specification:Sans" />
    <rect
       width="2.6250119"
       height="1.75"
       rx="0.328125"
       ry="0.328125"
       x="-187.25018"
       y="872.4021"
       transform="scale(-1,1)"
       id="rect42942-5-3-1-4-4-5-9"
       style="opacity:0.35;color:#bebebe;fill:#2a2a2a;fill-opacity:1;stroke:none;stroke-width:1;marker:none;visibility:visible;display:inline;overflow:visible" />
    <rect
       width="2.6250112"
       height="1.7501869"
       rx="0.328125"
       ry="0.328125"
       x="-187.25018"
       y="875.0271"
       transform="scale(-1,1)"
       id="rect42944-7-5-3-5-1-5-0-2-62-5"
       style="opacity:0.35;color:#bebebe;fill:#2a2a2a;fill-opacity:1;stroke:none;stroke-width:1;marker:none;visibility:visible;display:inline;overflow:visible" />
    <rect
       width="2.6250119"
       height="1.7501869"
       rx="0.328125"
       ry="0.328125"
       x="-193.37518"
       y="872.4021"
       transform="scale(-1,1)"
       id="rect42942-5-3-1-4-4-6-0-1"
       style="opacity:0.35;color:#bebebe;fill:#2a2a2a;fill-opacity:1;stroke:none;stroke-width:1;marker:none;visibility:visible;display:inline;overflow:visible" />
    <rect
       width="2.6250112"
       height="1.7501869"
       rx="0.328125"
       ry="0.328125"
       x="-193.37518"
       y="875.0271"
       transform="scale(-1,1)"
       id="rect42944-7-5-3-5-1-5-0-2-6-4-6"
       style="opacity:0.35;color:#bebebe;fill:#2a2a2a;fill-opacity:1;stroke:none;stroke-width:1;marker:none;visibility:visible;display:inline;overflow:visible" />
  </g>
</svg>
